<?xml version="1.0" encoding="iso-8859-1"?>
<!-- Generator: Adobe Illustrator 19.0.0, SVG Export Plug-In . SVG Version: 6.00 Build 0)  -->
<svg version="1.1" id="Capa_1" xmlns="http://www.w3.org/2000/svg" xmlns:xlink="http://www.w3.org/1999/xlink" x="0px" y="0px"
	 viewBox="0 0 489.2 489.2" style="enable-background:new 0 0 489.2 489.2;" xml:space="preserve">
<g>
	<g>
		<g>
			<polygon points="182.1,288.9 136.7,210 45.4,210 0,288.9 45.4,367.7 136.7,367.7 			"/>
			<polygon points="290,121.5 199.2,121.5 153.7,200.3 199.2,279.2 290,279.2 335.8,200.3 			"/>
			<polygon points="199.2,298.6 153.7,377.4 199.2,456.6 290,456.6 335.8,377.4 290,298.6 			"/>
			<polygon points="136.7,190.6 182.1,111.8 136.7,32.6 45.4,32.6 0,111.8 45.4,190.6 			"/>
			<polygon points="352.5,32.6 307.1,111.4 352.5,190.6 443.8,190.6 489.2,111.8 443.8,32.6 			"/>
		</g>
	</g>
</g>
<g>
</g>
<g>
</g>
<g>
</g>
<g>
</g>
<g>
</g>
<g>
</g>
<g>
</g>
<g>
</g>
<g>
</g>
<g>
</g>
<g>
</g>
<g>
</g>
<g>
</g>
<g>
</g>
<g>
</g>
</svg>
